<svg width="31" height="21" viewBox="0 0 31 21" fill="none" xmlns="http://www.w3.org/2000/svg">
<path d="M5.21484 20.1016C4.25391 20.1016 3.40625 19.9141 2.67188 19.5391C1.94531 19.1641 1.375 18.6445 0.960938 17.9805C0.554688 17.3164 0.351562 16.5469 0.351562 15.6719C0.351562 14.6406 0.648438 13.7344 1.24219 12.9531C1.83594 12.1641 2.62891 11.6211 3.62109 11.3242C3.71484 10.3633 3.96875 9.46875 4.38281 8.64062C4.80469 7.8125 5.35156 7.08984 6.02344 6.47266C6.69531 5.85547 7.45703 5.375 8.30859 5.03125C9.16797 4.67969 10.0742 4.50391 11.0273 4.50391C11.9727 4.50391 12.8633 4.66797 13.6992 4.99609C14.5352 5.32422 15.2891 5.79688 15.9609 6.41406C16.6406 7.03125 17.2109 7.77734 17.6719 8.65234C18.8359 8.66016 19.8789 8.91406 20.8008 9.41406C21.7305 9.90625 22.4609 10.582 22.9922 11.4414C23.5312 12.293 23.8008 13.2578 23.8008 14.3359C23.8008 15.4219 23.5391 16.3984 23.0156 17.2656C22.4922 18.1328 21.7852 18.8203 20.8945 19.3281C20.0039 19.8438 19.0039 20.1016 17.8945 20.1016H5.21484ZM25.1602 14.1133C25.1445 13.2383 24.9648 12.4102 24.6211 11.6289C24.2773 10.8398 23.7969 10.1367 23.1797 9.51953C22.5625 8.90234 21.8398 8.40234 21.0117 8.01953C20.1836 7.63672 19.2773 7.40625 18.293 7.32812C18.1445 7.02344 17.9844 6.75781 17.8125 6.53125C17.6406 6.29688 17.4648 6.09375 17.2852 5.92188C17.4414 5.14062 17.7109 4.41406 18.0938 3.74219C18.4844 3.07031 18.9414 2.48047 19.4648 1.97266C19.9961 1.46484 20.5508 1.0625 21.1289 0.765625C21.7148 0.46875 22.2773 0.308594 22.8164 0.285156C23.0508 0.277344 23.2266 0.332031 23.3438 0.449219C23.4688 0.558594 23.5312 0.703125 23.5312 0.882812C23.5312 1.08594 23.4609 1.34766 23.3203 1.66797C23.1875 1.98828 23.0508 2.35938 22.9102 2.78125C22.7773 3.20312 22.7109 3.67188 22.7109 4.1875C22.7109 5.05469 22.8984 5.81641 23.2734 6.47266C23.6562 7.12109 24.1953 7.62891 24.8906 7.99609C25.5938 8.35547 26.4219 8.53516 27.375 8.53516C27.9141 8.53516 28.375 8.47266 28.7578 8.34766C29.1406 8.22266 29.4648 8.09766 29.7305 7.97266C29.9961 7.84766 30.2266 7.78516 30.4219 7.78516C30.6094 7.78516 30.75 7.85938 30.8438 8.00781C30.9453 8.15625 30.9961 8.34375 30.9961 8.57031C30.9961 9.05469 30.8633 9.58203 30.5977 10.1523C30.3398 10.7227 29.957 11.2812 29.4492 11.8281C28.9492 12.3672 28.3359 12.8438 27.6094 13.2578C26.8906 13.6641 26.0742 13.9492 25.1602 14.1133Z" fill="#EBEBF5" fill-opacity="0.3"/>
</svg>
