<svg width="13" height="18" viewBox="0 0 13 18" fill="none" xmlns="http://www.w3.org/2000/svg">
<path d="M6.5 17.4072C5.34896 17.4072 4.3418 17.172 3.47852 16.7017C2.61523 16.2368 1.94287 15.5838 1.46143 14.7427C0.985514 13.896 0.747559 12.911 0.747559 11.7876C0.747559 11.2342 0.808431 10.6891 0.930176 10.1523C1.05192 9.61556 1.20133 9.10921 1.37842 8.6333C1.5555 8.15739 1.72428 7.73682 1.88477 7.37158C2.18359 6.70199 2.53776 6.01855 2.94727 5.32129C3.3623 4.61849 3.79948 3.91846 4.25879 3.22119C4.7181 2.52393 5.16081 1.84326 5.58691 1.1792C5.71419 0.991048 5.85531 0.847168 6.01025 0.747559C6.17074 0.647949 6.33398 0.598145 6.5 0.598145C6.67155 0.598145 6.8348 0.647949 6.98975 0.747559C7.14469 0.847168 7.28581 0.991048 7.41309 1.1792C7.84473 1.84326 8.28743 2.52393 8.74121 3.22119C9.20052 3.91846 9.6377 4.61849 10.0527 5.32129C10.4678 6.01855 10.8219 6.70199 11.1152 7.37158C11.2757 7.73682 11.4445 8.15739 11.6216 8.6333C11.7987 9.10921 11.9481 9.61556 12.0698 10.1523C12.1916 10.6891 12.2524 11.2342 12.2524 11.7876C12.2524 12.911 12.0117 13.896 11.5303 14.7427C11.0544 15.5838 10.3848 16.2368 9.52148 16.7017C8.6582 17.172 7.65104 17.4072 6.5 17.4072Z" fill="#EBEBF5" fill-opacity="0.6"/>
</svg>
