<svg width="24" height="25" viewBox="0 0 24 25" fill="none" xmlns="http://www.w3.org/2000/svg">
<path d="M12 18.5039C11.1797 18.5039 10.4102 18.3477 9.69141 18.0352C8.97266 17.7227 8.33594 17.293 7.78125 16.7461C7.23438 16.1992 6.80469 15.5664 6.49219 14.8477C6.17969 14.1211 6.02344 13.3516 6.02344 12.5391C6.02344 11.7188 6.17969 10.9492 6.49219 10.2305C6.80469 9.51172 7.23438 8.87891 7.78125 8.33203C8.33594 7.77734 8.97266 7.34375 9.69141 7.03125C10.4102 6.71875 11.1797 6.5625 12 6.5625C12.8125 6.5625 13.5781 6.71875 14.2969 7.03125C15.0234 7.34375 15.6602 7.77734 16.207 8.33203C16.7539 8.87891 17.1836 9.51172 17.4961 10.2305C17.8086 10.9492 17.9648 11.7188 17.9648 12.5391C17.9648 13.3516 17.8086 14.1211 17.4961 14.8477C17.1836 15.5664 16.7539 16.1992 16.207 16.7461C15.6602 17.293 15.0234 17.7227 14.2969 18.0352C13.5781 18.3477 12.8125 18.5039 12 18.5039ZM12 3.375C11.6562 3.375 11.3672 3.25781 11.1328 3.02344C10.8984 2.78125 10.7812 2.49219 10.7812 2.15625C10.7812 1.82031 10.8984 1.53516 11.1328 1.30078C11.3672 1.05859 11.6562 0.9375 12 0.9375C12.3359 0.9375 12.6211 1.05859 12.8555 1.30078C13.0977 1.53516 13.2188 1.82031 13.2188 2.15625C13.2188 2.49219 13.0977 2.78125 12.8555 3.02344C12.6211 3.25781 12.3359 3.375 12 3.375ZM19.3477 6.41016C19.0039 6.41016 18.7148 6.29297 18.4805 6.05859C18.2461 5.81641 18.1289 5.52734 18.1289 5.19141C18.1289 4.85547 18.2461 4.57031 18.4805 4.33594C18.7148 4.09375 19.0039 3.97266 19.3477 3.97266C19.6836 3.97266 19.9688 4.09375 20.2031 4.33594C20.4375 4.57031 20.5547 4.85547 20.5547 5.19141C20.5547 5.52734 20.4375 5.81641 20.2031 6.05859C19.9688 6.29297 19.6836 6.41016 19.3477 6.41016ZM22.3828 13.7578C22.0391 13.7578 21.75 13.6406 21.5156 13.4062C21.2812 13.1641 21.1641 12.875 21.1641 12.5391C21.1641 12.2031 21.2812 11.918 21.5156 11.6836C21.75 11.4414 22.0391 11.3203 22.3828 11.3203C22.7188 11.3203 23.0039 11.4414 23.2383 11.6836C23.4727 11.918 23.5898 12.2031 23.5898 12.5391C23.5898 12.875 23.4727 13.1641 23.2383 13.4062C23.0039 13.6406 22.7188 13.7578 22.3828 13.7578ZM19.3477 21.1055C19.0039 21.1055 18.7148 20.9883 18.4805 20.7539C18.2461 20.5117 18.1289 20.2227 18.1289 19.8867C18.1289 19.5508 18.2461 19.2656 18.4805 19.0312C18.7148 18.7891 19.0039 18.668 19.3477 18.668C19.6836 18.668 19.9688 18.7891 20.2031 19.0312C20.4375 19.2656 20.5547 19.5508 20.5547 19.8867C20.5547 20.2227 20.4375 20.5117 20.2031 20.7539C19.9688 20.9883 19.6836 21.1055 19.3477 21.1055ZM12 24.1406C11.6562 24.1406 11.3672 24.0195 11.1328 23.7773C10.8984 23.543 10.7812 23.2578 10.7812 22.9219C10.7812 22.5859 10.8984 22.2969 11.1328 22.0547C11.3672 21.8203 11.6562 21.7031 12 21.7031C12.3359 21.7031 12.6211 21.8203 12.8555 22.0547C13.0977 22.2969 13.2188 22.5859 13.2188 22.9219C13.2188 23.2578 13.0977 23.543 12.8555 23.7773C12.6211 24.0195 12.3359 24.1406 12 24.1406ZM4.65234 21.1055C4.31641 21.1055 4.02734 20.9883 3.78516 20.7539C3.55078 20.5117 3.43359 20.2227 3.43359 19.8867C3.43359 19.5508 3.55078 19.2656 3.78516 19.0312C4.02734 18.7891 4.31641 18.668 4.65234 18.668C4.98828 18.668 5.27344 18.7891 5.50781 19.0312C5.75 19.2656 5.87109 19.5508 5.87109 19.8867C5.87109 20.2227 5.75 20.5117 5.50781 20.7539C5.27344 20.9883 4.98828 21.1055 4.65234 21.1055ZM1.61719 13.7578C1.28125 13.7578 0.992188 13.6406 0.75 13.4062C0.515625 13.1641 0.398438 12.875 0.398438 12.5391C0.398438 12.2031 0.515625 11.918 0.75 11.6836C0.992188 11.4414 1.28125 11.3203 1.61719 11.3203C1.95312 11.3203 2.23828 11.4414 2.47266 11.6836C2.71484 11.918 2.83594 12.2031 2.83594 12.5391C2.83594 12.875 2.71484 13.1641 2.47266 13.4062C2.23828 13.6406 1.95312 13.7578 1.61719 13.7578ZM4.65234 6.41016C4.31641 6.41016 4.02734 6.29297 3.78516 6.05859C3.55078 5.81641 3.43359 5.52734 3.43359 5.19141C3.43359 4.85547 3.55078 4.57031 3.78516 4.33594C4.02734 4.09375 4.31641 3.97266 4.65234 3.97266C4.98828 3.97266 5.27344 4.09375 5.50781 4.33594C5.75 4.57031 5.87109 4.85547 5.87109 5.19141C5.87109 5.52734 5.75 5.81641 5.50781 6.05859C5.27344 6.29297 4.98828 6.41016 4.65234 6.41016Z" fill="#EBEBF5" fill-opacity="0.3"/>
</svg>
