<svg width="24" height="25" viewBox="0 0 24 25" fill="none" xmlns="http://www.w3.org/2000/svg">
<path d="M18.5625 16.6172C19.2812 16.6172 19.9805 16.5547 20.6602 16.4297C21.3398 16.2969 21.9062 16.1562 22.3594 16.0078C22.5625 15.9375 22.7305 15.9023 22.8633 15.9023C23.0273 15.9023 23.1836 15.9688 23.332 16.1016C23.4805 16.2344 23.5547 16.4102 23.5547 16.6289C23.5547 16.6836 23.5469 16.7734 23.5312 16.8984C23.5156 17.0156 23.4805 17.1445 23.4258 17.2852C23.0664 18.2383 22.5352 19.1328 21.832 19.9688C21.1289 20.7969 20.2969 21.5234 19.3359 22.1484C18.375 22.7812 17.3203 23.2734 16.1719 23.625C15.0234 23.9844 13.8164 24.1641 12.5508 24.1641C10.8398 24.1641 9.24609 23.875 7.76953 23.2969C6.30078 22.7188 5.01562 21.9023 3.91406 20.8477C2.82031 19.7852 1.96484 18.5352 1.34766 17.0977C0.738281 15.6602 0.433594 14.0781 0.433594 12.3516C0.433594 10.7109 0.734375 9.13672 1.33594 7.62891C1.94531 6.12109 2.79297 4.79297 3.87891 3.64453C4.96484 2.48828 6.23047 1.62109 7.67578 1.04297C7.80859 0.996094 7.9375 0.964844 8.0625 0.949219C8.1875 0.925781 8.28125 0.914062 8.34375 0.914062C8.57031 0.914062 8.74219 0.988281 8.85938 1.13672C8.97656 1.27734 9.03516 1.42578 9.03516 1.58203C9.03516 1.63672 9.02734 1.71094 9.01172 1.80469C8.99609 1.89062 8.96094 2 8.90625 2.13281C8.76562 2.46094 8.64062 2.86719 8.53125 3.35156C8.42188 3.83594 8.33203 4.33984 8.26172 4.86328C8.19922 5.37891 8.16797 5.85547 8.16797 6.29297C8.16797 7.88672 8.41016 9.32031 8.89453 10.5938C9.37891 11.8594 10.0742 12.9414 10.9805 13.8398C11.8945 14.7383 12.9883 15.4258 14.2617 15.9023C15.543 16.3789 16.9766 16.6172 18.5625 16.6172Z" fill="#EBEBF5" fill-opacity="0.3"/>
</svg>
