<svg width="18" height="18" viewBox="0 0 18 18" fill="none" xmlns="http://www.w3.org/2000/svg">
<path d="M13.5156 11.6963C14.0026 11.6963 14.4785 11.652 14.9434 11.5635C15.4082 11.4749 15.79 11.3753 16.0889 11.2646C16.2992 11.1706 16.479 11.1235 16.6284 11.1235C16.7723 11.1235 16.8968 11.1761 17.002 11.2812C17.1126 11.3864 17.168 11.522 17.168 11.688C17.168 11.7544 17.1569 11.8402 17.1348 11.9453C17.1182 12.0505 17.085 12.1639 17.0352 12.2856C16.7529 12.9884 16.3573 13.6387 15.8481 14.2363C15.3446 14.8285 14.7524 15.3459 14.0718 15.7886C13.3966 16.2313 12.6579 16.5744 11.8555 16.8179C11.0586 17.0669 10.2202 17.1914 9.34033 17.1914C8.12842 17.1914 7.00505 16.9867 5.97021 16.5771C4.93538 16.1676 4.03337 15.5866 3.26416 14.834C2.49495 14.0814 1.89453 13.196 1.46289 12.1777C1.03678 11.1595 0.82373 10.0417 0.82373 8.82422C0.82373 7.67318 1.03678 6.57194 1.46289 5.52051C1.89453 4.46354 2.49772 3.53109 3.27246 2.72314C4.0472 1.9152 4.94922 1.30371 5.97852 0.888672C6.08919 0.844401 6.19434 0.813965 6.29395 0.797363C6.39355 0.780762 6.47933 0.772461 6.55127 0.772461C6.72835 0.772461 6.86393 0.827799 6.95801 0.938477C7.05762 1.04915 7.10742 1.17367 7.10742 1.31201C7.10742 1.38395 7.09635 1.46419 7.07422 1.55273C7.05208 1.63574 7.01611 1.73535 6.96631 1.85156C6.86117 2.07292 6.76986 2.34684 6.69238 2.67334C6.61491 2.99984 6.55404 3.34294 6.50977 3.70264C6.46549 4.06234 6.44336 4.40267 6.44336 4.72363C6.44336 5.80273 6.60661 6.77116 6.93311 7.62891C7.26514 8.48665 7.73828 9.21989 8.35254 9.82861C8.97233 10.4318 9.71663 10.8939 10.5854 11.2148C11.4543 11.5358 12.431 11.6963 13.5156 11.6963Z" fill="white"/>
</svg>
