<svg width="20" height="19" viewBox="0 0 20 19" fill="none" xmlns="http://www.w3.org/2000/svg">
<path d="M9.99121 18.7422C8.74902 18.7422 7.58008 18.5049 6.48438 18.0303C5.38867 17.5615 4.42188 16.9082 3.58398 16.0703C2.75195 15.2324 2.09863 14.2656 1.62402 13.1699C1.14941 12.0742 0.912109 10.9053 0.912109 9.66309C0.912109 8.4209 1.14941 7.25195 1.62402 6.15625C2.09863 5.06055 2.75195 4.09668 3.58398 3.26465C4.42188 2.42676 5.38574 1.77051 6.47559 1.2959C7.57129 0.821289 8.74023 0.583984 9.98242 0.583984C11.2305 0.583984 12.4023 0.821289 13.498 1.2959C14.5938 1.77051 15.5605 2.42676 16.3984 3.26465C17.2363 4.09668 17.8926 5.06055 18.3672 6.15625C18.8418 7.25195 19.0791 8.4209 19.0791 9.66309C19.0791 10.9053 18.8418 12.0742 18.3672 13.1699C17.8926 14.2656 17.2363 15.2324 16.3984 16.0703C15.5605 16.9082 14.5938 17.5615 13.498 18.0303C12.4023 18.5049 11.2334 18.7422 9.99121 18.7422ZM7.8291 6.38477C7.8291 6.85938 7.9668 7.28125 8.24219 7.65039C8.51758 8.01953 8.86621 8.27734 9.28809 8.42383V12.8623C9.28809 13.2725 9.31445 13.665 9.36719 14.04C9.42578 14.4092 9.50781 14.7109 9.61328 14.9453C9.72461 15.1797 9.85352 15.2969 10 15.2969C10.1465 15.2969 10.2695 15.1826 10.3691 14.9541C10.4746 14.7197 10.5566 14.418 10.6152 14.0488C10.6738 13.6738 10.7031 13.2783 10.7031 12.8623V8.42383C11.125 8.2832 11.4736 8.02832 11.749 7.65918C12.0244 7.28418 12.1621 6.85938 12.1621 6.38477C12.1621 5.98633 12.0654 5.62305 11.8721 5.29492C11.6787 4.9668 11.418 4.70605 11.0898 4.5127C10.7617 4.31934 10.3984 4.22266 10 4.22266C9.60156 4.22266 9.23828 4.32227 8.91016 4.52148C8.58203 4.71484 8.31836 4.97559 8.11914 5.30371C7.92578 5.62598 7.8291 5.98633 7.8291 6.38477ZM8.76953 5.81348C8.76953 5.63184 8.83984 5.4707 8.98047 5.33008C9.12109 5.18945 9.28223 5.11914 9.46387 5.11914C9.65137 5.11914 9.8125 5.18945 9.94727 5.33008C10.082 5.4707 10.1494 5.63184 10.1494 5.81348C10.1494 6.00098 10.082 6.16504 9.94727 6.30566C9.8125 6.44043 9.65137 6.50781 9.46387 6.50781C9.28223 6.50781 9.12109 6.44043 8.98047 6.30566C8.8457 6.16504 8.77539 6.00098 8.76953 5.81348Z" fill="#999999"/>
</svg>
