<svg width="32" height="25" viewBox="0 0 32 25" fill="none" xmlns="http://www.w3.org/2000/svg">
<path d="M22.3398 19.1133C22.3398 19.543 22.2969 19.9609 22.2109 20.3672C22.125 20.7656 22 21.1484 21.8359 21.5156H10.1523C9.98828 21.1484 9.86328 20.7656 9.77734 20.3672C9.69141 19.9609 9.64844 19.543 9.64844 19.1133C9.64844 18.2461 9.8125 17.4297 10.1406 16.6641C10.4766 15.8984 10.9336 15.2227 11.5117 14.6367C12.0977 14.0508 12.7734 13.5938 13.5391 13.2656C14.3047 12.9297 15.125 12.7617 16 12.7617C16.8672 12.7617 17.6836 12.9297 18.4492 13.2656C19.2148 13.5938 19.8867 14.0508 20.4648 14.6367C21.0508 15.2227 21.5078 15.8984 21.8359 16.6641C22.1719 17.4297 22.3398 18.2461 22.3398 19.1133ZM3.51953 19.7812C3.21484 19.7812 2.96484 19.6914 2.76953 19.5117C2.57422 19.3242 2.47656 19.0977 2.47656 18.832C2.47656 18.5742 2.57422 18.3516 2.76953 18.1641C2.96484 17.9766 3.21484 17.8828 3.51953 17.8828H6.40234C6.70703 17.8828 6.95703 17.9766 7.15234 18.1641C7.34766 18.3516 7.44922 18.5742 7.45703 18.832C7.45703 19.0977 7.35547 19.3242 7.15234 19.5117C6.95703 19.6914 6.70703 19.7812 6.40234 19.7812H3.51953ZM8.53516 13.0195L6.49609 10.9805C6.27734 10.7617 6.16406 10.5195 6.15625 10.2539C6.15625 9.98047 6.25 9.75391 6.4375 9.57422C6.625 9.39453 6.85156 9.30469 7.11719 9.30469C7.38281 9.30469 7.625 9.41406 7.84375 9.63281L9.88281 11.6719C10.1016 11.8828 10.2109 12.125 10.2109 12.3984C10.2188 12.6719 10.1328 12.9023 9.95312 13.0898C9.77344 13.2773 9.54297 13.3672 9.26172 13.3594C8.98828 13.3516 8.74609 13.2383 8.53516 13.0195ZM22.0352 13.0898C21.8477 12.9102 21.7578 12.6836 21.7656 12.4102C21.7734 12.1289 21.8867 11.8828 22.1055 11.6719L24.1445 9.63281C24.3633 9.41406 24.6055 9.30469 24.8711 9.30469C25.1445 9.29688 25.3711 9.38672 25.5508 9.57422C25.7383 9.76172 25.8281 9.98828 25.8203 10.2539C25.8203 10.5195 25.7109 10.7617 25.4922 10.9805L23.4531 13.0195C23.2422 13.2383 23 13.3516 22.7266 13.3594C22.4531 13.3594 22.2227 13.2695 22.0352 13.0898ZM25.5859 19.7812C25.2891 19.7812 25.0391 19.6914 24.8359 19.5117C24.6406 19.3242 24.5391 19.0977 24.5312 18.832C24.5312 18.5742 24.6328 18.3516 24.8359 18.1641C25.0391 17.9766 25.2891 17.8828 25.5859 17.8828H28.4688C28.7734 17.8828 29.0234 17.9766 29.2188 18.1641C29.4141 18.3516 29.5117 18.5742 29.5117 18.832C29.5117 19.0977 29.4141 19.3242 29.2188 19.5117C29.0234 19.6914 28.7734 19.7812 28.4688 19.7812H25.5859ZM1.99609 24.7617C1.72266 24.7617 1.48438 24.668 1.28125 24.4805C1.07812 24.3008 0.976562 24.082 0.976562 23.8242C0.976562 23.5664 1.07812 23.3438 1.28125 23.1562C1.48438 22.9766 1.72266 22.8867 1.99609 22.8867H29.9922C30.2656 22.8867 30.5039 22.9766 30.707 23.1562C30.9102 23.3438 31.0117 23.5664 31.0117 23.8242C31.0117 24.082 30.9102 24.3008 30.707 24.4805C30.5039 24.668 30.2656 24.7617 29.9922 24.7617H1.99609ZM16 9.86719C15.7344 9.86719 15.5078 9.76953 15.3203 9.57422C15.1328 9.37109 15.0391 9.125 15.0391 8.83594V4.44141L15.1797 2.67188L14.4297 3.55078L12.8477 5.15625C12.7617 5.23438 12.6641 5.30078 12.5547 5.35547C12.4453 5.40234 12.3359 5.42578 12.2266 5.42578C11.9922 5.42578 11.7969 5.35156 11.6406 5.20312C11.4922 5.05469 11.418 4.86719 11.418 4.64062C11.418 4.51562 11.4414 4.40625 11.4883 4.3125C11.5352 4.21094 11.6055 4.11328 11.6992 4.01953L15.3555 0.609375C15.582 0.40625 15.7969 0.304688 16 0.304688C16.1953 0.304688 16.4062 0.40625 16.6328 0.609375L20.2891 4.01953C20.3828 4.11328 20.4531 4.21094 20.5 4.3125C20.5469 4.40625 20.5703 4.51562 20.5703 4.64062C20.5703 4.86719 20.4922 5.05469 20.3359 5.20312C20.1875 5.35156 19.9961 5.42578 19.7617 5.42578C19.6523 5.42578 19.543 5.40234 19.4336 5.35547C19.3242 5.30078 19.2266 5.23438 19.1406 5.15625L17.6758 3.66797L16.8086 2.67188L16.9492 4.44141V8.83594C16.9492 9.125 16.8555 9.37109 16.668 9.57422C16.4805 9.76953 16.2578 9.86719 16 9.86719Z" fill="#EBEBF5" fill-opacity="0.3"/>
</svg>
