<svg width="18" height="14" viewBox="0 0 18 14" fill="none" xmlns="http://www.w3.org/2000/svg">
<path d="M9 3.4043C8.54622 3.4043 8.15885 3.34896 7.83789 3.23828C7.52246 3.12207 7.24577 2.98096 7.00781 2.81494C6.77539 2.64339 6.55957 2.47461 6.36035 2.30859C6.16667 2.14258 5.96745 2.00423 5.7627 1.89355C5.55794 1.77734 5.32275 1.71924 5.05713 1.71924C4.78597 1.71924 4.54801 1.77734 4.34326 1.89355C4.14404 2.00423 3.94759 2.14258 3.75391 2.30859C3.56022 2.47461 3.34163 2.64339 3.09814 2.81494C2.85465 2.98096 2.55583 3.12207 2.20166 3.23828C1.85303 3.34896 1.42139 3.4043 0.906738 3.4043H0.865234C0.699219 3.4043 0.558105 3.34896 0.441895 3.23828C0.331217 3.12207 0.275879 2.98096 0.275879 2.81494C0.275879 2.65446 0.331217 2.51888 0.441895 2.4082C0.558105 2.29199 0.699219 2.23389 0.865234 2.23389H0.906738C1.34945 2.23389 1.71745 2.15365 2.01074 1.99316C2.30404 1.83268 2.6084 1.64176 2.92383 1.42041C3.19499 1.22119 3.50212 1.02751 3.84521 0.839355C4.19385 0.645671 4.59782 0.548828 5.05713 0.548828C5.53304 0.548828 5.94531 0.651204 6.29395 0.855957C6.64811 1.05518 6.96077 1.25716 7.23193 1.46191C7.51416 1.67773 7.78532 1.86035 8.04541 2.00977C8.31104 2.15918 8.62923 2.23389 9 2.23389C9.37077 2.23389 9.6862 2.15918 9.94629 2.00977C10.2064 1.86035 10.4803 1.67773 10.7681 1.46191C11.0392 1.25716 11.3491 1.05518 11.6978 0.855957C12.0519 0.651204 12.467 0.548828 12.9429 0.548828C13.4022 0.548828 13.8034 0.645671 14.1465 0.839355C14.4951 1.02751 14.805 1.22119 15.0762 1.42041C15.3861 1.64176 15.6877 1.83268 15.981 1.99316C16.2743 2.15365 16.645 2.23389 17.0933 2.23389H17.1348C17.2952 2.23389 17.4336 2.29199 17.5498 2.4082C17.666 2.51888 17.7241 2.65446 17.7241 2.81494C17.7241 2.98096 17.666 3.12207 17.5498 3.23828C17.4336 3.34896 17.2952 3.4043 17.1348 3.4043H17.0933C16.5731 3.4043 16.1387 3.34896 15.79 3.23828C15.4414 3.12207 15.1426 2.98096 14.8936 2.81494C14.6501 2.64339 14.4315 2.47461 14.2378 2.30859C14.0441 2.14258 13.8449 2.00423 13.6401 1.89355C13.4409 1.77734 13.2085 1.71924 12.9429 1.71924C12.6772 1.71924 12.4421 1.77734 12.2373 1.89355C12.0326 2.00423 11.8306 2.14258 11.6313 2.30859C11.4377 2.47461 11.2218 2.64339 10.9839 2.81494C10.7515 2.98096 10.4748 3.12207 10.1538 3.23828C9.83838 3.34896 9.45378 3.4043 9 3.4043ZM9 8.41797C8.54622 8.41797 8.15885 8.36263 7.83789 8.25195C7.52246 8.13574 7.24577 7.99463 7.00781 7.82861C6.77539 7.6626 6.55957 7.49658 6.36035 7.33057C6.16667 7.15902 5.96745 7.0179 5.7627 6.90723C5.55794 6.79102 5.32275 6.73291 5.05713 6.73291C4.78597 6.73291 4.54801 6.79102 4.34326 6.90723C4.14404 7.0179 3.94759 7.15902 3.75391 7.33057C3.56022 7.49658 3.34163 7.6626 3.09814 7.82861C2.85465 7.99463 2.55583 8.13574 2.20166 8.25195C1.85303 8.36263 1.42139 8.41797 0.906738 8.41797H0.865234C0.699219 8.41797 0.558105 8.36263 0.441895 8.25195C0.331217 8.13574 0.275879 7.9974 0.275879 7.83691C0.275879 7.6709 0.331217 7.53255 0.441895 7.42188C0.558105 7.30566 0.699219 7.24756 0.865234 7.24756H0.906738C1.34945 7.24756 1.71745 7.16732 2.01074 7.00684C2.30404 6.84635 2.6084 6.65544 2.92383 6.43408C3.19499 6.2404 3.50212 6.04671 3.84521 5.85303C4.19385 5.65934 4.59782 5.5625 5.05713 5.5625C5.53304 5.5625 5.94531 5.66488 6.29395 5.86963C6.64811 6.07438 6.96077 6.27637 7.23193 6.47559C7.51416 6.69141 7.78532 6.87402 8.04541 7.02344C8.31104 7.17285 8.62923 7.24756 9 7.24756C9.37077 7.24756 9.6862 7.17285 9.94629 7.02344C10.2064 6.87402 10.4803 6.69141 10.7681 6.47559C11.0392 6.27637 11.3491 6.07438 11.6978 5.86963C12.0519 5.66488 12.467 5.5625 12.9429 5.5625C13.4022 5.5625 13.8034 5.65934 14.1465 5.85303C14.4951 6.04671 14.805 6.2404 15.0762 6.43408C15.3861 6.65544 15.6877 6.84635 15.981 7.00684C16.2743 7.16732 16.645 7.24756 17.0933 7.24756H17.1348C17.2952 7.24756 17.4336 7.30566 17.5498 7.42188C17.666 7.53255 17.7241 7.6709 17.7241 7.83691C17.7241 7.9974 17.666 8.13574 17.5498 8.25195C17.4336 8.36263 17.2952 8.41797 17.1348 8.41797H17.0933C16.5731 8.41797 16.1387 8.36263 15.79 8.25195C15.4414 8.13574 15.1426 7.99463 14.8936 7.82861C14.6501 7.6626 14.4315 7.49658 14.2378 7.33057C14.0441 7.15902 13.8449 7.0179 13.6401 6.90723C13.4409 6.79102 13.2085 6.73291 12.9429 6.73291C12.6772 6.73291 12.4421 6.79102 12.2373 6.90723C12.0326 7.0179 11.8306 7.15902 11.6313 7.33057C11.4377 7.49658 11.2218 7.6626 10.9839 7.82861C10.7515 7.99463 10.4748 8.13574 10.1538 8.25195C9.83838 8.36263 9.45378 8.41797 9 8.41797ZM9 13.4399C8.54622 13.4399 8.15885 13.3818 7.83789 13.2656C7.52246 13.1549 7.24577 13.0166 7.00781 12.8506C6.77539 12.679 6.55957 12.5103 6.36035 12.3442C6.16667 12.1782 5.96745 12.0399 5.7627 11.9292C5.55794 11.813 5.32275 11.7549 5.05713 11.7549C4.78597 11.7549 4.54801 11.813 4.34326 11.9292C4.14404 12.0399 3.94759 12.1782 3.75391 12.3442C3.56022 12.5103 3.34163 12.679 3.09814 12.8506C2.85465 13.0166 2.55583 13.1549 2.20166 13.2656C1.85303 13.3818 1.42139 13.4399 0.906738 13.4399H0.865234C0.699219 13.4399 0.558105 13.3818 0.441895 13.2656C0.331217 13.1494 0.275879 13.0111 0.275879 12.8506C0.275879 12.6901 0.331217 12.5545 0.441895 12.4438C0.558105 12.3276 0.699219 12.2695 0.865234 12.2695H0.906738C1.34945 12.2695 1.71745 12.1893 2.01074 12.0288C2.30404 11.8683 2.6084 11.6774 2.92383 11.4561C3.19499 11.2568 3.50212 11.0632 3.84521 10.875C4.19385 10.6813 4.59782 10.5845 5.05713 10.5845C5.53304 10.5845 5.94531 10.6868 6.29395 10.8916C6.64811 11.0908 6.96077 11.29 7.23193 11.4893C7.51416 11.7106 7.78532 11.896 8.04541 12.0454C8.31104 12.1948 8.62923 12.2695 9 12.2695C9.37077 12.2695 9.6862 12.1948 9.94629 12.0454C10.2064 11.896 10.4803 11.7106 10.7681 11.4893C11.0392 11.29 11.3491 11.0908 11.6978 10.8916C12.0519 10.6868 12.467 10.5845 12.9429 10.5845C13.4022 10.5845 13.8034 10.6813 14.1465 10.875C14.4951 11.0632 14.805 11.2568 15.0762 11.4561C15.3861 11.6774 15.6877 11.8683 15.981 12.0288C16.2743 12.1893 16.645 12.2695 17.0933 12.2695H17.1348C17.2952 12.2695 17.4336 12.3276 17.5498 12.4438C17.666 12.5545 17.7241 12.6901 17.7241 12.8506C17.7241 13.0111 17.666 13.1494 17.5498 13.2656C17.4336 13.3818 17.2952 13.4399 17.1348 13.4399H17.0933C16.5731 13.4399 16.1387 13.3818 15.79 13.2656C15.4414 13.1549 15.1426 13.0166 14.8936 12.8506C14.6501 12.679 14.4315 12.5103 14.2378 12.3442C14.0441 12.1782 13.8449 12.0399 13.6401 11.9292C13.4409 11.813 13.2085 11.7549 12.9429 11.7549C12.6772 11.7549 12.4421 11.813 12.2373 11.9292C12.0326 12.0399 11.8306 12.1782 11.6313 12.3442C11.4377 12.5103 11.2218 12.679 10.9839 12.8506C10.7515 13.0166 10.4748 13.1549 10.1538 13.2656C9.83838 13.3818 9.45378 13.4399 9 13.4399Z" fill="#EBEBF5" fill-opacity="0.6"/>
</svg>
