<svg width="18" height="16" viewBox="0 0 18 16" fill="none" xmlns="http://www.w3.org/2000/svg">
<path d="M0.996094 5.64111C0.807943 5.69645 0.647461 5.68815 0.514648 5.61621C0.38737 5.54427 0.304362 5.43636 0.265625 5.29248C0.221354 5.1486 0.232422 5.01302 0.298828 4.88574C0.365234 4.75293 0.486979 4.66162 0.664062 4.61182C1.27279 4.41813 1.91195 4.26595 2.58154 4.15527C3.25114 4.03906 3.92627 3.98096 4.60693 3.98096C5.13265 3.98096 5.61963 4.00309 6.06787 4.04736C6.51611 4.0861 6.95052 4.1276 7.37109 4.17188C7.7972 4.21061 8.23991 4.22998 8.69922 4.22998C9.10319 4.22998 9.42692 4.11654 9.67041 3.88965C9.9139 3.65723 10.0356 3.35286 10.0356 2.97656C10.0356 2.60026 9.91667 2.30143 9.67871 2.08008C9.44076 1.85319 9.15023 1.73975 8.80713 1.73975C8.54704 1.73975 8.31185 1.81445 8.10156 1.96387C7.89681 2.10775 7.7474 2.28483 7.65332 2.49512C7.56478 2.66113 7.44857 2.76628 7.30469 2.81055C7.16081 2.85482 7.02246 2.84375 6.88965 2.77734C6.74577 2.7054 6.65723 2.60026 6.62402 2.46191C6.59635 2.31803 6.61572 2.17692 6.68213 2.03857C6.85921 1.64567 7.13867 1.31641 7.52051 1.05078C7.90234 0.785156 8.33122 0.652344 8.80713 0.652344C9.23324 0.652344 9.62061 0.751953 9.96924 0.951172C10.3234 1.15039 10.6029 1.42432 10.8076 1.77295C11.0179 2.12158 11.123 2.52279 11.123 2.97656C11.123 3.41374 11.0234 3.80941 10.8242 4.16357C10.6305 4.51774 10.3511 4.7972 9.98584 5.00195C9.62614 5.20671 9.19727 5.30908 8.69922 5.30908C8.21777 5.30908 7.76123 5.28971 7.32959 5.25098C6.90348 5.20671 6.46908 5.1652 6.02637 5.12646C5.58919 5.08219 5.11605 5.06006 4.60693 5.06006C3.39502 5.06006 2.19141 5.25374 0.996094 5.64111ZM13.9785 9.52588C13.2812 9.52588 12.5951 9.45394 11.9199 9.31006C11.2448 9.16618 10.5641 9.00016 9.87793 8.81201C9.19173 8.61833 8.47786 8.44954 7.73633 8.30566C7.00033 8.16178 6.22005 8.08984 5.39551 8.08984C4.5765 8.08984 3.80729 8.14795 3.08789 8.26416C2.36849 8.38037 1.67122 8.56852 0.996094 8.82861C0.813477 8.88949 0.655762 8.88395 0.522949 8.81201C0.390137 8.74007 0.304362 8.63216 0.265625 8.48828C0.221354 8.3444 0.232422 8.20882 0.298828 8.08154C0.370768 7.94873 0.492513 7.85189 0.664062 7.79102C1.39453 7.53646 2.1499 7.34277 2.93018 7.20996C3.71598 7.07161 4.53776 7.00244 5.39551 7.00244C6.22559 7.00244 7.01969 7.07715 7.77783 7.22656C8.5415 7.37044 9.27474 7.53646 9.97754 7.72461C10.6859 7.91276 11.3721 8.08154 12.0361 8.23096C12.7002 8.37484 13.3477 8.44678 13.9785 8.44678C14.6536 8.44678 15.1904 8.27523 15.5889 7.93213C15.9928 7.5835 16.1948 7.13249 16.1948 6.5791C16.1948 6.2194 16.1118 5.9012 15.9458 5.62451C15.7853 5.34229 15.564 5.1237 15.2817 4.96875C15.005 4.8138 14.6979 4.73633 14.3604 4.73633C14.0671 4.73633 13.7987 4.79997 13.5552 4.92725C13.3117 5.04899 13.1069 5.22054 12.9409 5.44189C12.7804 5.65771 12.6753 5.90951 12.6255 6.19727C12.5923 6.39095 12.5148 6.53483 12.3931 6.62891C12.2769 6.72298 12.1413 6.75895 11.9863 6.73682C11.8369 6.71468 11.7179 6.64274 11.6294 6.521C11.5464 6.39372 11.5187 6.2443 11.5464 6.07275C11.6128 5.61898 11.7733 5.20947 12.0278 4.84424C12.2824 4.479 12.6089 4.19124 13.0073 3.98096C13.4058 3.76514 13.8568 3.65723 14.3604 3.65723C14.8971 3.65723 15.3869 3.78451 15.8296 4.03906C16.2723 4.28809 16.6237 4.63395 16.8838 5.07666C17.1494 5.51383 17.2822 6.01465 17.2822 6.5791C17.2822 7.15462 17.1411 7.66374 16.8589 8.10645C16.5767 8.54915 16.1865 8.89779 15.6885 9.15234C15.196 9.40137 14.626 9.52588 13.9785 9.52588ZM8.70752 15.3779C8.07113 15.3779 7.55094 15.1759 7.14697 14.772C6.743 14.368 6.50505 13.8783 6.43311 13.3027C6.40544 13.1312 6.43034 12.979 6.50781 12.8462C6.58529 12.7134 6.7181 12.6387 6.90625 12.6221C7.08887 12.611 7.23275 12.6608 7.33789 12.7715C7.44857 12.8766 7.51497 13.0067 7.53711 13.1616C7.59798 13.5103 7.72526 13.7869 7.91895 13.9917C8.11816 14.1965 8.38102 14.2988 8.70752 14.2988C9.03402 14.2988 9.31348 14.1909 9.5459 13.9751C9.77832 13.7593 9.89453 13.4604 9.89453 13.0786C9.89453 12.4699 9.50163 11.9912 8.71582 11.6426C7.93555 11.2884 6.79281 11.1113 5.2876 11.1113C4.54053 11.1113 3.80176 11.175 3.07129 11.3022C2.34635 11.424 1.65462 11.6038 0.996094 11.8418C0.813477 11.9027 0.655762 11.8971 0.522949 11.8252C0.390137 11.7533 0.304362 11.6453 0.265625 11.5015C0.221354 11.3631 0.232422 11.2275 0.298828 11.0947C0.370768 10.9619 0.492513 10.8651 0.664062 10.8042C1.36686 10.5607 2.11947 10.3698 2.92188 10.2314C3.72982 10.0931 4.51839 10.0239 5.2876 10.0239C7.13037 10.0239 8.53874 10.2896 9.5127 10.8208C10.4867 11.3465 10.9736 12.0991 10.9736 13.0786C10.9736 13.5324 10.874 13.9308 10.6748 14.2739C10.4756 14.617 10.2044 14.8854 9.86133 15.0791C9.51823 15.2783 9.13363 15.3779 8.70752 15.3779Z" fill="#EBEBF5" fill-opacity="0.6"/>
</svg>
